<?xml version="1.0" encoding="UTF-8"?>
<svg xmlns="http://www.w3.org/2000/svg" xmlns:xlink="http://www.w3.org/1999/xlink" width="14px" height="16px" viewBox="0 0 14 15" version="1.1">
<g id="surface1">
<path style=" stroke:none;fill-rule:nonzero;fill:rgb(0%,0%,0%);fill-opacity:1;" d="M 3.164062 13.125 L 0.289062 13.125 L 0.289062 4.363281 L 3.164062 4.363281 Z M 1.726562 3.167969 C 0.804688 3.167969 0.0585938 2.445312 0.0585938 1.578125 C 0.0585938 0.707031 0.804688 0 1.726562 0 C 2.644531 0 3.390625 0.707031 3.390625 1.578125 C 3.390625 2.445312 2.644531 3.167969 1.726562 3.167969 Z M 13.9375 13.125 L 11.066406 13.125 L 11.066406 8.859375 C 11.066406 7.84375 11.042969 6.539062 9.570312 6.539062 C 8.074219 6.539062 7.84375 7.644531 7.84375 8.785156 L 7.84375 13.125 L 4.96875 13.125 L 4.96875 4.363281 L 7.730469 4.363281 L 7.730469 5.558594 L 7.769531 5.558594 C 8.152344 4.867188 9.09375 4.144531 10.492188 4.144531 C 13.40625 4.144531 13.941406 5.957031 13.941406 8.3125 L 13.941406 13.125 Z M 13.9375 13.125 "/>
</g>
</svg>
